<?xml version="1.0" encoding="UTF-8"?>
<mxfile host="app.diagrams.net" modified="2024-03-19T12:00:00.000Z" agent="Mozilla/5.0" version="21.7.5" etag="your-etag" type="device">
  <diagram id="deployment_diagram" name="Deployment Diagram">
    <mxGraphModel dx="1422" dy="762" grid="1" gridSize="10" guides="1" tooltips="1" connect="1" arrows="1" fold="1" page="1" pageScale="1" pageWidth="827" pageHeight="1169" math="0" shadow="0">
      <root>
        <mxCell id="0"/>
        <mxCell id="1" parent="0"/>
        
        <!-- Client Node -->
        <mxCell id="2" value="Client" style="shape=mxgraph.cisco.computers_and_peripherals.pc;html=1;dashed=0;fillColor=#FAFAFA;strokeColor=#005073;strokeWidth=2;verticalLabelPosition=bottom;verticalAlign=top;align=center;spacingTop=0;outlineConnect=0;fontColor=#005073;" vertex="1" parent="1">
          <mxGeometry x="40" y="200" width="60" height="60" as="geometry"/>
        </mxCell>
        
        <!-- Internet Cloud -->
        <mxCell id="3" value="Internet" style="ellipse;shape=cloud;whiteSpace=wrap;html=1;fillColor=#f5f5f5;strokeColor=#666666;fontColor=#333333;" vertex="1" parent="1">
          <mxGeometry x="160" y="180" width="120" height="100" as="geometry"/>
        </mxCell>
        
        <!-- ngrok Node -->
        <mxCell id="4" value="ngrok" style="shape=mxgraph.cisco.servers.standalone_server;html=1;dashed=0;fillColor=#FAFAFA;strokeColor=#005073;strokeWidth=2;verticalLabelPosition=bottom;verticalAlign=top;align=center;spacingTop=0;outlineConnect=0;fontColor=#005073;" vertex="1" parent="1">
          <mxGeometry x="340" y="200" width="60" height="60" as="geometry"/>
        </mxCell>
        
        <!-- Local Server Node -->
        <mxCell id="5" value="Local Server" style="shape=mxgraph.cisco.servers.standalone_server;html=1;dashed=0;fillColor=#FAFAFA;strokeColor=#005073;strokeWidth=2;verticalLabelPosition=bottom;verticalAlign=top;align=center;spacingTop=0;outlineConnect=0;fontColor=#005073;" vertex="1" parent="1">
          <mxGeometry x="460" y="200" width="60" height="60" as="geometry"/>
        </mxCell>
        
        <!-- Database Node -->
        <mxCell id="6" value="SQLite Database" style="shape=mxgraph.cisco.servers.storage_server;html=1;dashed=0;fillColor=#FAFAFA;strokeColor=#005073;strokeWidth=2;verticalLabelPosition=bottom;verticalAlign=top;align=center;spacingTop=0;outlineConnect=0;fontColor=#005073;" vertex="1" parent="1">
          <mxGeometry x="580" y="200" width="60" height="60" as="geometry"/>
        </mxCell>
        
        <!-- Components -->
        <mxCell id="7" value="Flask Application" style="shape=component;whiteSpace=wrap;html=1;backgroundOutline=1;size=0.25;fillColor=#dae8fc;strokeColor=#6c8ebf;" vertex="1" parent="1">
          <mxGeometry x="440" y="280" width="100" height="40" as="geometry"/>
        </mxCell>
        
        <mxCell id="8" value="Cache Manager" style="shape=component;whiteSpace=wrap;html=1;backgroundOutline=1;size=0.25;fillColor=#ffe6cc;strokeColor=#d79b00;" vertex="1" parent="1">
          <mxGeometry x="440" y="340" width="100" height="40" as="geometry"/>
        </mxCell>
        
        <!-- Connections -->
        <mxCell id="9" value="" style="endArrow=classic;html=1;exitX=1;exitY=0.5;exitDx=0;exitDy=0;entryX=0;entryY=0.5;entryDx=0;entryDy=0;" edge="1" parent="1" source="2" target="3">
          <mxGeometry width="50" height="50" relative="1" as="geometry">
            <mxPoint x="390" y="420" as="sourcePoint"/>
            <mxPoint x="440" y="420" as="targetPoint"/>
          </mxGeometry>
        </mxCell>
        
        <mxCell id="10" value="" style="endArrow=classic;html=1;exitX=1;exitY=0.5;exitDx=0;exitDy=0;entryX=0;entryY=0.5;entryDx=0;entryDy=0;" edge="1" parent="1" source="3" target="4">
          <mxGeometry width="50" height="50" relative="1" as="geometry">
            <mxPoint x="390" y="420" as="sourcePoint"/>
            <mxPoint x="440" y="420" as="targetPoint"/>
          </mxGeometry>
        </mxCell>
        
        <mxCell id="11" value="" style="endArrow=classic;html=1;exitX=1;exitY=0.5;exitDx=0;exitDy=0;entryX=0;entryY=0.5;entryDx=0;entryDy=0;" edge="1" parent="1" source="4" target="5">
          <mxGeometry width="50" height="50" relative="1" as="geometry">
            <mxPoint x="390" y="420" as="sourcePoint"/>
            <mxPoint x="440" y="420" as="targetPoint"/>
          </mxGeometry>
        </mxCell>
        
        <mxCell id="12" value="" style="endArrow=classic;html=1;exitX=1;exitY=0.5;exitDx=0;exitDy=0;entryX=0;entryY=0.5;entryDx=0;entryDy=0;" edge="1" parent="1" source="5" target="6">
          <mxGeometry width="50" height="50" relative="1" as="geometry">
            <mxPoint x="390" y="420" as="sourcePoint"/>
            <mxPoint x="440" y="420" as="targetPoint"/>
          </mxGeometry>
        </mxCell>
        
        <!-- Component Connections -->
        <mxCell id="13" value="" style="endArrow=classic;html=1;exitX=0.5;exitY=0;exitDx=0;exitDy=0;entryX=0.5;entryY=1;entryDx=0;entryDy=0;" edge="1" parent="1" source="7" target="5">
          <mxGeometry width="50" height="50" relative="1" as="geometry">
            <mxPoint x="390" y="420" as="sourcePoint"/>
            <mxPoint x="440" y="420" as="targetPoint"/>
          </mxGeometry>
        </mxCell>
        
        <mxCell id="14" value="" style="endArrow=classic;html=1;exitX=0.5;exitY=0;exitDx=0;exitDy=0;entryX=0.5;entryY=1;entryDx=0;entryDy=0;" edge="1" parent="1" source="8" target="5">
          <mxGeometry width="50" height="50" relative="1" as="geometry">
            <mxPoint x="390" y="420" as="sourcePoint"/>
            <mxPoint x="440" y="420" as="targetPoint"/>
          </mxGeometry>
        </mxCell>
        
        <!-- Labels -->
        <mxCell id="15" value="HTTP/HTTPS" style="text;html=1;strokeColor=none;fillColor=none;align=center;verticalAlign=middle;whiteSpace=wrap;rounded=0;" vertex="1" parent="1">
          <mxGeometry x="120" y="150" width="60" height="30" as="geometry"/>
        </mxCell>
        
        <mxCell id="16" value="Tunnel" style="text;html=1;strokeColor=none;fillColor=none;align=center;verticalAlign=middle;whiteSpace=wrap;rounded=0;" vertex="1" parent="1">
          <mxGeometry x="300" y="150" width="60" height="30" as="geometry"/>
        </mxCell>
        
        <mxCell id="17" value="Local Network" style="text;html=1;strokeColor=none;fillColor=none;align=center;verticalAlign=middle;whiteSpace=wrap;rounded=0;" vertex="1" parent="1">
          <mxGeometry x="420" y="150" width="60" height="30" as="geometry"/>
        </mxCell>
        
      </root>
    </mxGraphModel>
  </diagram>
</mxfile> 